<svg xmlns="http://www.w3.org/2000/svg" xmlns:xlink="http://www.w3.org/1999/xlink" contentStyleType="text/css" height="379px" preserveAspectRatio="none" style="width:942px;height:379px;background:#FFFFFF;" version="1.1" viewBox="0 0 942 379" width="942px" zoomAndPan="magnify"><defs/><g><!--cluster ?????? ??????, Docker--><g id="cluster_&#1057;&#1073;&#1086;&#1088;&#1082;&#1072; &#1086;&#1073;&#1088;&#1072;&#1079;&#1072;, Docker"><polygon fill="none" points="68,14,78,4,723,4,723,215,713,225,68,225,68,14" style="stroke:#181818;stroke-width:1;"/><line style="stroke:#181818;stroke-width:1;" x1="713" x2="723" y1="14" y2="4"/><line style="stroke:#181818;stroke-width:1;" x1="68" x2="713" y1="14" y2="14"/><line style="stroke:#181818;stroke-width:1;" x1="713" x2="713" y1="14" y2="225"/><text fill="#000000" font-family="Helvetica" font-size="14" font-weight="bold" lengthAdjust="spacing" textLength="159.4961" x="311.752" y="27.7803">&#1057;&#1073;&#1086;&#1088;&#1082;&#1072; &#1086;&#1073;&#1088;&#1072;&#1079;&#1072;, Docker</text></g><!--cluster s1--><g id="cluster_s1"><polygon fill="none" points="76,47.5,86,37.5,439,37.5,439,207,429,217,76,217,76,47.5" style="stroke:#181818;stroke-width:1;"/><line style="stroke:#181818;stroke-width:1;" x1="429" x2="439" y1="47.5" y2="37.5"/><line style="stroke:#181818;stroke-width:1;" x1="76" x2="429" y1="47.5" y2="47.5"/><line style="stroke:#181818;stroke-width:1;" x1="429" x2="429" y1="47.5" y2="217"/><text fill="#000000" font-family="Helvetica" font-size="14" font-weight="bold" lengthAdjust="spacing" textLength="190.5859" x="158.207" y="61.2803">&#1057;&#1090;&#1072;&#1076;&#1080;&#1103; 1: Python + PyTorch</text></g><!--cluster s2--><g id="cluster_s2"><polygon fill="none" points="447,44,457,34,715,34,715,106,705,116,447,116,447,44" style="stroke:#181818;stroke-width:1;"/><line style="stroke:#181818;stroke-width:1;" x1="705" x2="715" y1="44" y2="34"/><line style="stroke:#181818;stroke-width:1;" x1="447" x2="705" y1="44" y2="44"/><line style="stroke:#181818;stroke-width:1;" x1="705" x2="705" y1="44" y2="116"/><text fill="#000000" font-family="Helvetica" font-size="14" font-weight="bold" lengthAdjust="spacing" textLength="156.7275" x="498.6362" y="57.7803">&#1057;&#1090;&#1072;&#1076;&#1080;&#1103; 2: Go toolchain</text></g><!--cluster run--><g id="cluster_run"><polygon fill="none" points="269,290,279,280,697,280,697,352,687,362,269,362,269,290" style="stroke:#181818;stroke-width:1;"/><line style="stroke:#181818;stroke-width:1;" x1="687" x2="697" y1="290" y2="280"/><line style="stroke:#181818;stroke-width:1;" x1="269" x2="687" y1="290" y2="290"/><line style="stroke:#181818;stroke-width:1;" x1="687" x2="687" y1="290" y2="362"/><text fill="#000000" font-family="Helvetica" font-size="14" font-weight="bold" lengthAdjust="spacing" textLength="246.0186" x="355.9907" y="303.7803">&#1048;&#1090;&#1086;&#1075;&#1086;&#1074;&#1099;&#1081; &#1086;&#1073;&#1088;&#1072;&#1079;: scratch, UID 65534</text></g><!--cluster ???? compose--><g id="cluster_&#1057;&#1077;&#1090;&#1100; compose"><polygon fill="none" points="731,145,741,135,925,135,925,207,915,217,731,217,731,145" style="stroke:#181818;stroke-width:1;"/><line style="stroke:#181818;stroke-width:1;" x1="915" x2="925" y1="145" y2="135"/><line style="stroke:#181818;stroke-width:1;" x1="731" x2="915" y1="145" y2="145"/><line style="stroke:#181818;stroke-width:1;" x1="915" x2="915" y1="145" y2="217"/><text fill="#000000" font-family="Helvetica" font-size="14" font-weight="bold" lengthAdjust="spacing" textLength="98.3418" x="774.8291" y="158.7803">&#1057;&#1077;&#1090;&#1100; compose</text></g><!--entity br--><g id="elem_br"><ellipse cx="33.207" cy="158.5" fill="#F1F1F1" rx="8" ry="8" style="stroke:#181818;stroke-width:0.5;"/><path d="M33.207,166.5 L33.207,193.5 M20.207,174.5 L46.207,174.5 M33.207,193.5 L20.207,208.5 M33.207,193.5 L46.207,208.5 " fill="none" style="stroke:#181818;stroke-width:0.5;"/><text fill="#000000" font-family="Helvetica" font-size="14" lengthAdjust="spacing" textLength="54.4141" x="6" y="220.7803">&#1041;&#1088;&#1072;&#1091;&#1079;&#1077;&#1088;</text></g><!--entity ck--><g id="elem_ck"><rect fill="#F1F1F1" height="37" rx="2.5" ry="2.5" style="stroke:#181818;stroke-width:0.5;" width="127.3232" x="303.5" y="67.5"/><polygon fill="#F1F1F1" points="413.8232,72.5,413.8232,86.5,425.8232,86.5,425.8232,78.5,419.8232,72.5,413.8232,72.5" style="stroke:#181818;stroke-width:0.5;"/><line style="stroke:#181818;stroke-width:0.5;" x1="419.8232" x2="419.8232" y1="72.5" y2="78.5"/><line style="stroke:#181818;stroke-width:0.5;" x1="425.8232" x2="419.8232" y1="78.5" y2="78.5"/><text fill="#000000" font-family="Helvetica" font-size="14" lengthAdjust="spacing" textLength="97.3232" x="313.5" y="91.2803">&#1063;&#1077;&#1082;&#1087;&#1086;&#1081;&#1085;&#1090; CNN</text></g><!--entity lab--><g id="elem_lab"><rect fill="#F1F1F1" height="37" rx="2.5" ry="2.5" style="stroke:#181818;stroke-width:0.5;" width="201.2676" x="84.5" y="67.5"/><polygon fill="#F1F1F1" points="268.7676,72.5,268.7676,86.5,280.7676,86.5,280.7676,78.5,274.7676,72.5,268.7676,72.5" style="stroke:#181818;stroke-width:0.5;"/><line style="stroke:#181818;stroke-width:0.5;" x1="274.7676" x2="274.7676" y1="72.5" y2="78.5"/><line style="stroke:#181818;stroke-width:0.5;" x1="280.7676" x2="274.7676" y1="78.5" y2="78.5"/><text fill="#000000" font-family="Helvetica" font-size="14" lengthAdjust="spacing" textLength="171.2676" x="94.5" y="91.2803">&#1055;&#1086;&#1089;&#1072;&#1076;&#1082;&#1080; &#1076;&#1086; &#1076;&#1072;&#1090;&#1099; &#1086;&#1090;&#1089;&#1077;&#1095;&#1082;&#1080;</text></g><!--entity ex--><g id="elem_ex"><rect fill="#F1F1F1" height="44" rx="2.5" ry="2.5" style="stroke:#181818;stroke-width:0.5;" width="146.0596" x="285" y="165"/><rect fill="#F1F1F1" height="10" style="stroke:#181818;stroke-width:0.5;" width="15" x="411.0596" y="170"/><rect fill="#F1F1F1" height="2" style="stroke:#181818;stroke-width:0.5;" width="4" x="409.0596" y="172"/><rect fill="#F1F1F1" height="2" style="stroke:#181818;stroke-width:0.5;" width="4" x="409.0596" y="176"/><text fill="#000000" font-family="Helvetica" font-size="14" lengthAdjust="spacing" textLength="106.0596" x="300" y="195.7803">&#1069;&#1082;&#1089;&#1087;&#1086;&#1088;&#1090; &#1075;&#1086;&#1083;&#1086;&#1074;&#1099;</text></g><!--entity bin--><g id="elem_bin"><rect fill="#F1F1F1" height="44" rx="2.5" ry="2.5" style="stroke:#181818;stroke-width:0.5;" width="250.7109" x="455.5" y="64"/><rect fill="#F1F1F1" height="10" style="stroke:#181818;stroke-width:0.5;" width="15" x="686.2109" y="69"/><rect fill="#F1F1F1" height="2" style="stroke:#181818;stroke-width:0.5;" width="4" x="684.2109" y="71"/><rect fill="#F1F1F1" height="2" style="stroke:#181818;stroke-width:0.5;" width="4" x="684.2109" y="75"/><text fill="#000000" font-family="Helvetica" font-size="14" lengthAdjust="spacing" textLength="210.7109" x="470.5" y="94.7803">&#1057;&#1090;&#1072;&#1090;&#1080;&#1095;&#1077;&#1089;&#1082;&#1080;&#1081; &#1073;&#1080;&#1085;&#1072;&#1088;&#1085;&#1080;&#1082; &#1089;&#1077;&#1088;&#1074;&#1077;&#1088;&#1072;</text></g><!--entity srv--><g id="elem_srv"><rect fill="#F1F1F1" height="44" rx="2.5" ry="2.5" style="stroke:#181818;stroke-width:0.5;" width="221.877" x="467" y="310"/><rect fill="#F1F1F1" height="10" style="stroke:#181818;stroke-width:0.5;" width="15" x="668.877" y="315"/><rect fill="#F1F1F1" height="2" style="stroke:#181818;stroke-width:0.5;" width="4" x="666.877" y="317"/><rect fill="#F1F1F1" height="2" style="stroke:#181818;stroke-width:0.5;" width="4" x="666.877" y="321"/><text fill="#000000" font-family="Helvetica" font-size="14" lengthAdjust="spacing" textLength="181.877" x="482" y="340.7803">Go-&#1089;&#1077;&#1088;&#1074;&#1077;&#1088; + &#1074;&#1089;&#1090;&#1088;&#1086;&#1077;&#1085;&#1085;&#1099;&#1081; UI</text></g><!--entity hj--><g id="elem_hj"><rect fill="#F1F1F1" height="37" rx="2.5" ry="2.5" style="stroke:#181818;stroke-width:0.5;" width="172.0439" x="277" y="313.5"/><polygon fill="#F1F1F1" points="432.0439,318.5,432.0439,332.5,444.0439,332.5,444.0439,324.5,438.0439,318.5,432.0439,318.5" style="stroke:#181818;stroke-width:0.5;"/><line style="stroke:#181818;stroke-width:0.5;" x1="438.0439" x2="438.0439" y1="318.5" y2="324.5"/><line style="stroke:#181818;stroke-width:0.5;" x1="444.0439" x2="438.0439" y1="324.5" y2="324.5"/><text fill="#000000" font-family="Helvetica" font-size="14" lengthAdjust="spacing" textLength="142.0439" x="287" y="337.2803">&#1043;&#1086;&#1083;&#1086;&#1074;&#1072; CNN + &#1101;&#1090;&#1072;&#1083;&#1086;&#1085;</text></g><!--entity load--><g id="elem_load"><rect fill="#F1F1F1" height="44" rx="2.5" ry="2.5" style="stroke:#181818;stroke-width:0.5;" width="177.0469" x="739.5" y="165"/><rect fill="#F1F1F1" height="10" style="stroke:#181818;stroke-width:0.5;" width="15" x="896.5469" y="170"/><rect fill="#F1F1F1" height="2" style="stroke:#181818;stroke-width:0.5;" width="4" x="894.5469" y="172"/><rect fill="#F1F1F1" height="2" style="stroke:#181818;stroke-width:0.5;" width="4" x="894.5469" y="176"/><text fill="#000000" font-family="Helvetica" font-size="14" lengthAdjust="spacing" textLength="137.0469" x="754.5" y="195.7803">&#1053;&#1072;&#1075;&#1088;&#1091;&#1079;&#1086;&#1095;&#1085;&#1099;&#1081; &#1082;&#1083;&#1080;&#1077;&#1085;&#1090;</text></g><polygon fill="#181818" points="359.9395,164.6651,364.7379,156.0642,360.3922,159.6856,356.7708,155.3399,359.9395,164.6651" style="stroke:#181818;stroke-width:1;"/><path d="M365.391,104.6992 C363.864,121.4956 362.1102,140.7879 360.4828,158.6897 " fill="none" style="stroke:#181818;stroke-width:1;"/><polygon fill="#181818" points="321.0281,164.8427,315.2034,156.9008,316.6884,162.3593,311.23,163.8443,321.0281,164.8427" style="stroke:#181818;stroke-width:1;"/><path d="M215.9289,104.6992 C245.3773,121.5512 284.5198,143.9506 315.8205,161.8626 " fill="none" style="stroke:#181818;stroke-width:1;"/><polygon fill="#181818" points="362.3853,313.4206,366.0684,304.2863,362.2106,308.4237,358.0733,304.5659,362.3853,313.4206" style="stroke:#181818;stroke-width:1;"/><path d="M358.7378,209.1001 C359.7266,237.3797 361.254,281.065 362.1757,307.4243 " fill="none" style="stroke:#181818;stroke-width:1;"/><polygon fill="#181818" points="578.2582,309.9963,582.3686,301.0461,578.3197,304.9966,574.3692,300.9478,578.2582,309.9963" style="stroke:#181818;stroke-width:1;"/><path d="M580.739,108.2266 C580.1702,154.4885 578.8983,257.9384 578.332,303.9967 " fill="none" style="stroke:#181818;stroke-width:1;"/><polygon fill="#181818" points="535.9285,309.9289,529.4501,302.5107,531.3935,307.8232,526.081,309.7666,535.9285,309.9289" style="stroke:#181818;stroke-width:1;"/><path d="M60.4131,217.7238 C64.0748,220.5307 67.9667,223.0501 72,225 C228.0135,300.423 291.0687,233.4943 458,280 C484.7128,287.442 507.8959,296.9127 530.4865,307.4021 " fill="none" style="stroke:#181818;stroke-width:1;"/><text fill="#000000" font-family="Helvetica" font-size="13" lengthAdjust="spacing" textLength="70.0845" x="422" y="254.0103">HTTP :8090</text><text fill="#000000" font-family="Helvetica" font-size="13" lengthAdjust="spacing" textLength="59.2617" x="427.4114" y="267.0103">basic auth</text><polygon fill="#181818" points="615.0397,309.8133,624.838,308.8168,619.3799,307.3307,620.8659,301.8726,615.0397,309.8133" style="stroke:#181818;stroke-width:1;"/><path d="M791.1116,209.1001 C743.845,236.1366 667.5874,279.756 620.2479,306.8342 " fill="none" style="stroke:#181818;stroke-width:1;"/><text fill="#000000" font-family="Helvetica" font-size="13" lengthAdjust="spacing" textLength="33.9409" x="734" y="260.5103">HTTP</text><!--SRC=[RLA_RnCn5DxlhtXafP7QGX5aOA6YxH9rI3SMnt5wHovsv7DAArGf2GD3GGYniA2gKoUaQqj4cYhfl_3kF-ApZq286EnxEllxyRxd1pqh3hk2Kd5Y-ewohd92YoZh9BedhEXI5ekMUPFeGsgBD5DB9otL5ltKlJJQrKLNqQvAZvHBf8YqQIcgy0LVyRmOy9HpuZbVeSpv9-Thj6raHzaAlOs85fUB4Kv_yAJuH1irsZzniT7q44N3M1bNI6IKRGG4aR0kQGlfWBlaCGJkmN_Bis94B-hrS5TsLc-UmymmQ4nvGlZC_PONe-8Czl0PyhXuxmy3GIgQWK6QRizefJt5TvxYrhtl2b9y0zKxhElYB43KCH2d_-zfiqOxXfmngOn5eij-Dd_tiwmHG5WJU1b33NxubX3bX6Su662Vy9I2sm5VXpqFTCr41_tJnG2-WcOUNCAX9_apX1fbqWedupKwsDkc9rjRZnu73jlNmTEIenrJNHR3J40tH5u3y8rXPnR83_RAdknHz4_iNnOXuHLWE80N7qCk_kSiOEBNVprVG6DKV2WDPAgoweQ_0Ng3_D_XASsHKQcEcEwGozY_WN9yHhJ02W_60lNPznqmQA5CoqQoGzNgSpys37jHgkDGmHFo3ALlgMaN9TLejz7OfzhJzMVhhtHJP8aaqNTnv2LNRlq2]--></g></svg>