<svg xmlns="http://www.w3.org/2000/svg" xmlns:xlink="http://www.w3.org/1999/xlink" version="1.1" data-diagram-type="DESCRIPTION" style="width:765px;height:932px;background:#FFFFFF;" width="765px" height="932px" viewBox="0 0 765 932" zoomAndPan="magnify" preserveAspectRatio="none" contentStyleType="text/css"><?plantuml 1.2026.8?><defs/><g font-family="sans-serif" lengthAdjust="spacing"><!--cluster Обучение, Python--><g class="cluster" data-qualified-name="......... Python" id="ent0002" data-source-line="6"><path d="M30,69 L153.91,69 A3.75,3.75 0 0 1 156.41,71.5 L163.41,89 L445,89 A2.5,2.5 0 0 1 447.5,91.5 L447.5,316 A2.5,2.5 0 0 1 445,318.5 L30,318.5 A2.5,2.5 0 0 1 27.5,316 L27.5,71.5 A2.5,2.5 0 0 1 30,69" style="stroke:#000;stroke-width:1.5;" fill="none"/><line x1="27.5" y1="89" x2="163.41" y2="89" style="stroke:#000;stroke-width:1.5;"/><text x="31.5" y="81.78" fill="#000" font-size="14" textLength="122.91" font-weight="700" font-family="Helvetica">Обучение, Python</text></g><!--cluster Контейнер сервиса, Go--><g class="cluster" data-qualified-name="......... ........ Go" id="ent0014" data-source-line="19"><path d="M305,399 L469.16,399 A3.75,3.75 0 0 1 471.66,401.5 L478.66,419 L575,419 A2.5,2.5 0 0 1 577.5,421.5 L577.5,905.5 A2.5,2.5 0 0 1 575,908 L305,908 A2.5,2.5 0 0 1 302.5,905.5 L302.5,401.5 A2.5,2.5 0 0 1 305,399" style="stroke:#000;stroke-width:1.5;" fill="none"/><line x1="302.5" y1="419" x2="478.66" y2="419" style="stroke:#000;stroke-width:1.5;"/><text x="306.5" y="411.78" fill="#000" font-size="14" textLength="163.16" font-weight="700" font-family="Helvetica">Контейнер сервиса, Go</text></g><!--entity user--><g class="entity" data-qualified-name="user" id="ent0001" data-source-line="5"><ellipse cx="248.287" cy="714.5" rx="8" ry="8" fill="#F1F1F1" style="stroke:#181818;stroke-width:0.5;"/><path d="M248.287,722.5 L248.287,749.5 M235.287,730.5 L261.287,730.5 M248.287,749.5 L235.287,764.5 M248.287,749.5 L261.287,764.5" style="stroke:#181818;stroke-width:0.5;" fill="none"/><text x="211" y="776.78" fill="#000" font-size="14" textLength="74.573" font-family="Helvetica">Клиент API</text></g><!--entity data--><g class="entity" data-qualified-name="data" id="ent0008" data-source-line="13"><path d="M6,14 C6,4 67.666,4 67.666,4 C67.666,4 129.332,4 129.332,14 L129.332,51 C129.332,61 67.666,61 67.666,61 C67.666,61 6,61 6,51 L6,14" style="stroke:#181818;stroke-width:0.5;" fill="#F1F1F1"/><path d="M6,14 C6,24 67.666,24 67.666,24 C67.666,24 129.332,24 129.332,14" style="stroke:#181818;stroke-width:0.5;" fill="none"/><text x="16" y="38.78" fill="#000" font-size="14" textLength="73.931" font-family="Helvetica">Валидации</text><text x="16" y="52.78" fill="#000" font-size="14" textLength="103.332" font-family="Helvetica">январь-октябрь</text></g><!--entity cal--><g class="entity" data-qualified-name="cal" id="ent0009" data-source-line="14"><path d="M147,14 C147,4 231.512,4 231.512,4 C231.512,4 316.023,4 316.023,14 L316.023,51 C316.023,61 231.512,61 231.512,61 C231.512,61 147,61 147,51 L147,14" style="stroke:#181818;stroke-width:0.5;" fill="#F1F1F1"/><path d="M147,14 C147,24 231.512,24 231.512,24 C231.512,24 316.023,24 316.023,14" style="stroke:#181818;stroke-width:0.5;" fill="none"/><text x="157" y="38.78" fill="#000" font-size="14" textLength="104.46" font-family="Helvetica">Календарь XML</text><text x="157" y="52.78" fill="#000" font-size="14" textLength="149.023" font-family="Helvetica">и расписание событий</text></g><!--entity ckpt--><g class="entity" data-qualified-name="ckpt" id="ent0010" data-source-line="15"><rect x="464" y="267" width="127.323" height="37" fill="#F1F1F1" style="stroke:#181818;stroke-width:0.5;" rx="2.5" ry="2.5"/><polygon points="574.323,272,574.323,286,586.323,286,586.323,278,580.323,272,574.323,272" fill="#F1F1F1" style="stroke:#181818;stroke-width:0.5;stroke-linejoin:miter;stroke-miterlimit:10;"/><line x1="580.323" y1="272" x2="580.323" y2="278" style="stroke:#181818;stroke-width:0.5;"/><line x1="586.323" y1="278" x2="580.323" y2="278" style="stroke:#181818;stroke-width:0.5;"/><text x="474" y="290.78" fill="#000" font-size="14" textLength="97.323" font-family="Helvetica">Чекпойнт CNN</text></g><!--entity bcnn--><g class="entity" data-qualified-name="bcnn" id="ent0011" data-source-line="16"><rect x="503.5" y="180" width="152.206" height="51" fill="#F1F1F1" style="stroke:#181818;stroke-width:0.5;" rx="2.5" ry="2.5"/><polygon points="638.706,185,638.706,199,650.706,199,650.706,191,644.706,185,638.706,185" fill="#F1F1F1" style="stroke:#181818;stroke-width:0.5;stroke-linejoin:miter;stroke-miterlimit:10;"/><line x1="644.706" y1="185" x2="644.706" y2="191" style="stroke:#181818;stroke-width:0.5;"/><line x1="650.706" y1="191" x2="644.706" y2="191" style="stroke:#181818;stroke-width:0.5;"/><text x="513.5" y="203.78" fill="#000" font-size="14" textLength="75.585" font-family="Helvetica">Бандл CNN</text><text x="513.5" y="217.78" fill="#000" font-size="14" textLength="122.206" font-family="Helvetica">head.json + эталон</text></g><!--entity bcb--><g class="entity" data-qualified-name="bcb" id="ent0012" data-source-line="17"><rect x="305.5" y="340" width="159.958" height="51" fill="#F1F1F1" style="stroke:#181818;stroke-width:0.5;" rx="2.5" ry="2.5"/><polygon points="448.458,345,448.458,359,460.458,359,460.458,351,454.458,345,448.458,345" fill="#F1F1F1" style="stroke:#181818;stroke-width:0.5;stroke-linejoin:miter;stroke-miterlimit:10;"/><line x1="454.458" y1="345" x2="454.458" y2="351" style="stroke:#181818;stroke-width:0.5;"/><line x1="460.458" y1="351" x2="454.458" y2="351" style="stroke:#181818;stroke-width:0.5;"/><text x="315.5" y="363.78" fill="#000" font-size="14" textLength="102.84" font-family="Helvetica">Бандл CatBoost</text><text x="315.5" y="377.78" fill="#000" font-size="14" textLength="129.958" font-family="Helvetica">model.cbm + эталон</text></g><!--entity cond--><g class="entity" data-qualified-name="cond" id="ent0013" data-source-line="18"><rect x="594" y="620.5" width="141.098" height="37" fill="#F1F1F1" style="stroke:#181818;stroke-width:0.5;" rx="2.5" ry="2.5"/><polygon points="718.098,625.5,718.098,639.5,730.098,639.5,730.098,631.5,724.098,625.5,718.098,625.5" fill="#F1F1F1" style="stroke:#181818;stroke-width:0.5;stroke-linejoin:miter;stroke-miterlimit:10;"/><line x1="724.098" y1="625.5" x2="724.098" y2="631.5" style="stroke:#181818;stroke-width:0.5;"/><line x1="730.098" y1="631.5" x2="724.098" y2="631.5" style="stroke:#181818;stroke-width:0.5;"/><text x="604" y="644.28" fill="#000" font-size="14" textLength="111.098" font-family="Helvetica">Каталог условий</text></g><!--entity load--><g class="entity" data-qualified-name="load" id="ent0021" data-source-line="27"><rect x="594" y="719" width="154.723" height="48" fill="#F1F1F1" style="stroke:#181818;stroke-width:0.5;" rx="2.5" ry="2.5"/><text x="604" y="739.78" fill="#000" font-size="14" textLength="56.807" font-family="Helvetica">cmd/load</text><text x="604" y="753.78" fill="#000" font-size="14" textLength="134.723" font-family="Helvetica">нагрузочный клиент</text></g><!--entity prep--><g class="entity" data-qualified-name="......... Python.prep" id="ent0003" data-source-line="7"><rect x="43.5" y="110" width="212.425" height="34" fill="#F1F1F1" style="stroke:#181818;stroke-width:0.5;" rx="2.5" ry="2.5"/><text x="53.5" y="130.78" fill="#000" font-size="14" textLength="192.425" font-family="Helvetica">Подготовка почасовой сетки</text></g><!--entity train--><g class="entity" data-qualified-name="......... Python.train" id="ent0004" data-source-line="8"><rect x="284" y="181.5" width="118.957" height="48" fill="#F1F1F1" style="stroke:#181818;stroke-width:0.5;" rx="2.5" ry="2.5"/><text x="294" y="202.28" fill="#000" font-size="14" textLength="98.957" font-family="Helvetica">Обучение CNN</text><text x="294" y="216.28" fill="#000" font-size="14" textLength="52.124" font-family="Helvetica">PyTorch</text></g><!--entity ens--><g class="entity" data-qualified-name="......... Python.ens" id="ent0005" data-source-line="9"><rect x="102.5" y="181.5" width="122.327" height="48" fill="#F1F1F1" style="stroke:#181818;stroke-width:0.5;" rx="2.5" ry="2.5"/><text x="112.5" y="202.28" fill="#000" font-size="14" textLength="64.21" font-family="Helvetica">Ансамбль</text><text x="112.5" y="216.28" fill="#000" font-size="14" textLength="102.327" font-family="Helvetica">CatBoost + MLP</text></g><!--entity excnn--><g class="entity" data-qualified-name="......... Python.excnn" id="ent0006" data-source-line="10"><rect x="273.5" y="110" width="157.771" height="34" fill="#F1F1F1" style="stroke:#181818;stroke-width:0.5;" rx="2.5" ry="2.5"/><text x="283.5" y="130.78" fill="#000" font-size="14" textLength="137.771" font-family="Helvetica">export_cnn_bundle.py</text></g><!--entity excb--><g class="entity" data-qualified-name="......... Python.excb" id="ent0007" data-source-line="11"><rect x="195" y="268.5" width="127.413" height="34" fill="#F1F1F1" style="stroke:#181818;stroke-width:0.5;" rx="2.5" ry="2.5"/><text x="205" y="289.28" fill="#000" font-size="14" textLength="107.413" font-family="Helvetica">export_bundle.py</text></g><!--entity bundle--><g class="entity" data-qualified-name="......... ........ Go.bundle" id="ent0015" data-source-line="20"><rect x="352.5" y="440" width="174.41" height="48" fill="#F1F1F1" style="stroke:#181818;stroke-width:0.5;" rx="2.5" ry="2.5"/><text x="362.5" y="460.78" fill="#000" font-size="14" textLength="91.848" font-family="Helvetica">internal/bundle</text><text x="362.5" y="474.78" fill="#000" font-size="14" textLength="154.41" font-family="Helvetica">чтение и golden-сверка</text></g><!--entity cnn--><g class="entity" data-qualified-name="......... ........ Go.cnn" id="ent0016" data-source-line="21"><rect x="319" y="524" width="98.928" height="48" fill="#F1F1F1" style="stroke:#181818;stroke-width:0.5;" rx="2.5" ry="2.5"/><text x="329" y="544.78" fill="#000" font-size="14" textLength="72.379" font-family="Helvetica">internal/cnn</text><text x="329" y="558.78" fill="#000" font-size="14" textLength="78.928" font-family="Helvetica">голова CNN</text></g><!--entity cb--><g class="entity" data-qualified-name="......... ........ Go.cb" id="ent0017" data-source-line="22"><rect x="436" y="524" width="125.062" height="48" fill="#F1F1F1" style="stroke:#181818;stroke-width:0.5;" rx="2.5" ry="2.5"/><text x="446" y="544.78" fill="#000" font-size="14" textLength="102.73" font-family="Helvetica">internal/catboost</text><text x="446" y="558.78" fill="#000" font-size="14" textLength="105.062" font-family="Helvetica">libcatboostmodel</text></g><!--entity fc--><g class="entity" data-qualified-name="......... ........ Go.fc" id="ent0018" data-source-line="23"><rect x="375.5" y="608" width="185.881" height="62" fill="#F1F1F1" style="stroke:#181818;stroke-width:0.5;" rx="2.5" ry="2.5"/><text x="385.5" y="628.78" fill="#000" font-size="14" textLength="99.606" font-family="Helvetica">internal/forecast</text><text x="385.5" y="642.78" fill="#000" font-size="14" textLength="165.881" font-family="Helvetica">постобработка, коридор,</text><text x="385.5" y="656.78" fill="#000" font-size="14" textLength="115.979" font-family="Helvetica">обычный уровень</text></g><!--entity cn--><g class="entity" data-qualified-name="......... ........ Go.cn" id="ent0019" data-source-line="24"><rect x="403" y="719" width="132.848" height="48" fill="#F1F1F1" style="stroke:#181818;stroke-width:0.5;" rx="2.5" ry="2.5"/><text x="413" y="739.78" fill="#000" font-size="14" textLength="112.848" font-family="Helvetica">internal/conditions</text><text x="413" y="753.78" fill="#000" font-size="14" textLength="107.864" font-family="Helvetica">условия и аудит</text></g><!--entity api--><g class="entity" data-qualified-name="......... ........ Go.api" id="ent0020" data-source-line="25"><rect x="379.5" y="816" width="179.53" height="76" fill="#F1F1F1" style="stroke:#181818;stroke-width:0.5;" rx="2.5" ry="2.5"/><text x="389.5" y="836.78" fill="#000" font-size="14" textLength="68.489" font-family="Helvetica">internal/api</text><text x="389.5" y="850.78" fill="#000" font-size="14" textLength="152.523" font-family="Helvetica">/forecast /export /explain</text><text x="389.5" y="864.78" fill="#000" font-size="14" textLength="159.53" font-family="Helvetica">/conditions /routes /model</text><text x="389.5" y="878.78" fill="#000" font-size="14" textLength="117.517" font-family="Helvetica">/stats /healthz /geo</text></g><g class="link" data-entity-1="ent0008" data-entity-2="ent0003" id="lnk22" data-link-type="dependency"><polygon points="135.09,109.745,132.113,100.356,131.773,106.003,126.126,105.663,135.09,109.745" fill="#181818" style="stroke:#181818;stroke-width:1;stroke-linejoin:miter;stroke-miterlimit:10;"/><path d="M91.881,61.003 C105.949,76.873 119.843,92.546 131.773,106.003" style="stroke:#181818;stroke-width:1;" fill="none"/></g><g class="link" data-entity-1="ent0009" data-entity-2="ent0003" id="lnk23" data-link-type="dependency"><polygon points="163.91,109.745,172.874,105.663,167.227,106.003,166.887,100.356,163.91,109.745" fill="#181818" style="stroke:#181818;stroke-width:1;stroke-linejoin:miter;stroke-miterlimit:10;"/><path d="M207.119,61.003 C193.051,76.873 179.157,92.546 167.227,106.003" style="stroke:#181818;stroke-width:1;" fill="none"/></g><g class="link" data-entity-1="ent0003" data-entity-2="ent0004" id="lnk24" data-link-type="dependency"><polygon points="284.848,181.372,277.943,174.349,280.197,179.538,275.009,181.792,284.848,181.372" fill="#181818" style="stroke:#181818;stroke-width:1;stroke-linejoin:miter;stroke-miterlimit:10;"/><path d="M190.169,144.037 C217.612,154.859 249.611,167.477 280.197,179.538" style="stroke:#181818;stroke-width:1;" fill="none"/></g><g class="link" data-entity-1="ent0003" data-entity-2="ent0005" id="lnk25" data-link-type="dependency"><polygon points="159.26,181.333,161.575,171.76,158.36,176.415,153.706,173.2,159.26,181.333" fill="#181818" style="stroke:#181818;stroke-width:1;stroke-linejoin:miter;stroke-miterlimit:10;"/><path d="M152.469,144.224 C154.444,155.013 156.167,164.431 158.36,176.415" style="stroke:#181818;stroke-width:1;" fill="none"/></g><g class="link" data-entity-1="ent0004" data-entity-2="ent0010" id="lnk26" data-link-type="dependency"><polygon points="486.155,266.973,479.43,259.778,481.551,265.022,476.307,267.143,486.155,266.973" fill="#181818" style="stroke:#181818;stroke-width:1;stroke-linejoin:miter;stroke-miterlimit:10;"/><path d="M398.208,229.691 C426.386,241.637 455.58,254.012 481.551,265.022" style="stroke:#181818;stroke-width:1;" fill="none"/></g><g class="link" data-entity-1="ent0010" data-entity-2="ent0006" id="lnk27" data-link-type="dependency"><polygon points="370.883,144.111,375.005,153.055,374.64,147.41,380.285,147.045,370.883,144.111" fill="#181818" style="stroke:#181818;stroke-width:1;stroke-linejoin:miter;stroke-miterlimit:10;"/><path d="M507.855,266.684 C484.831,245.832 445.499,210.295 411.5,180 C397.942,167.919 386.304,157.655 374.64,147.41" style="stroke:#181818;stroke-width:1;" fill="none"/></g><g class="link" data-entity-1="ent0006" data-entity-2="ent0011" id="lnk28" data-link-type="dependency"><polygon points="506.491,179.896,499.24,173.231,501.753,178.299,496.685,180.812,506.491,179.896" fill="#181818" style="stroke:#181818;stroke-width:1;stroke-linejoin:miter;stroke-miterlimit:10;"/><path d="M400.087,144.037 C430.898,154.421 466.889,166.55 501.753,178.299" style="stroke:#181818;stroke-width:1;" fill="none"/></g><g class="link" data-entity-1="ent0005" data-entity-2="ent0007" id="lnk29" data-link-type="dependency"><polygon points="238.943,268.443,234.525,259.64,235.078,265.27,229.449,265.823,238.943,268.443" fill="#181818" style="stroke:#181818;stroke-width:1;stroke-linejoin:miter;stroke-miterlimit:10;"/><path d="M191.746,229.691 C206.951,242.175 221.46,254.088 235.078,265.27" style="stroke:#181818;stroke-width:1;" fill="none"/></g><g class="link" data-entity-1="ent0007" data-entity-2="ent0012" id="lnk30" data-link-type="dependency"><polygon points="345.207,339.753,339.632,331.635,340.947,337.137,335.445,338.452,345.207,339.753" fill="#181818" style="stroke:#181818;stroke-width:1;stroke-linejoin:miter;stroke-miterlimit:10;"/><path d="M284.814,302.662 C302.252,313.371 321.204,325.011 340.947,337.137" style="stroke:#181818;stroke-width:1;" fill="none"/></g><g class="link" data-entity-1="ent0011" data-entity-2="ent0015" id="lnk31" data-link-type="dependency"><polygon points="480.598,439.908,490.345,438.502,484.83,437.246,486.085,431.73,480.598,439.908" fill="#181818" style="stroke:#181818;stroke-width:1;stroke-linejoin:miter;stroke-miterlimit:10;"/><path d="M591.809,231.08 C601.717,254.457 612.092,290.161 599.5,318.5 C575.335,372.886 523.698,412.794 484.83,437.246" style="stroke:#181818;stroke-width:1;" fill="none"/></g><g class="link" data-entity-1="ent0012" data-entity-2="ent0015" id="lnk32" data-link-type="dependency"><polygon points="426.502,439.773,425.598,429.965,424.061,435.409,418.617,433.872,426.502,439.773" fill="#181818" style="stroke:#181818;stroke-width:1;stroke-linejoin:miter;stroke-miterlimit:10;"/><path d="M399.266,391.101 C407.641,406.066 415.83,420.701 424.061,435.409" style="stroke:#181818;stroke-width:1;" fill="none"/></g><g class="link" data-entity-1="ent0013" data-entity-2="ent0019" id="lnk33" data-link-type="dependency"><polygon points="513.541,718.963,523.37,718.336,517.972,716.646,519.662,711.247,513.541,718.963" fill="#181818" style="stroke:#181818;stroke-width:1;stroke-linejoin:miter;stroke-miterlimit:10;"/><path d="M630.978,657.534 C598.528,674.508 553.58,698.02 517.972,716.646" style="stroke:#181818;stroke-width:1;" fill="none"/></g><g class="link" data-entity-1="ent0015" data-entity-2="ent0016" id="lnk34" data-link-type="dependency"><polygon points="388.46,523.947,397.376,519.761,391.733,520.167,391.328,514.525,388.46,523.947" fill="#181818" style="stroke:#181818;stroke-width:1;stroke-linejoin:miter;stroke-miterlimit:10;"/><path d="M419.344,488.279 C409.669,499.453 401.383,509.022 391.733,520.167" style="stroke:#181818;stroke-width:1;" fill="none"/></g><g class="link" data-entity-1="ent0015" data-entity-2="ent0017" id="lnk35" data-link-type="dependency"><polygon points="481.913,523.947,479.904,514.305,478.993,519.888,473.41,518.978,481.913,523.947" fill="#181818" style="stroke:#181818;stroke-width:1;stroke-linejoin:miter;stroke-miterlimit:10;"/><path d="M456.249,488.279 C464.289,499.453 470.974,508.744 478.993,519.888" style="stroke:#181818;stroke-width:1;" fill="none"/></g><g class="link" data-entity-1="ent0016" data-entity-2="ent0018" id="lnk36" data-link-type="dependency"><polygon points="434.699,607.917,430.635,598.946,430.964,604.593,425.317,604.922,434.699,607.917" fill="#181818" style="stroke:#181818;stroke-width:1;stroke-linejoin:miter;stroke-miterlimit:10;"/><path d="M394.513,572.151 C406.781,583.07 417.84,592.912 430.964,604.593" style="stroke:#181818;stroke-width:1;" fill="none"/></g><g class="link" data-entity-1="ent0017" data-entity-2="ent0018" id="lnk37" data-link-type="dependency"><polygon points="478.702,607.733,485.368,600.482,480.3,602.995,477.787,597.927,478.702,607.733" fill="#181818" style="stroke:#181818;stroke-width:1;stroke-linejoin:miter;stroke-miterlimit:10;"/><path d="M490.618,572.384 C486.972,583.199 484.193,591.443 480.3,602.995" style="stroke:#181818;stroke-width:1;" fill="none"/></g><g class="link" data-entity-1="ent0018" data-entity-2="ent0019" id="lnk38" data-link-type="dependency"><polygon points="469.274,718.958,473.186,709.919,469.225,713.958,465.186,709.998,469.274,718.958" fill="#181818" style="stroke:#181818;stroke-width:1;stroke-linejoin:miter;stroke-miterlimit:10;"/><path d="M468.795,670.052 C468.948,685.683 469.083,699.492 469.225,713.958" style="stroke:#181818;stroke-width:1;" fill="none"/></g><g class="link" data-entity-1="ent0019" data-entity-2="ent0020" id="lnk39" data-link-type="dependency"><polygon points="469.5,815.765,473.5,806.765,469.5,810.765,465.5,806.765,469.5,815.765" fill="#181818" style="stroke:#181818;stroke-width:1;stroke-linejoin:miter;stroke-miterlimit:10;"/><path d="M469.5,767.116 C469.5,781.239 469.5,794.628 469.5,810.765" style="stroke:#181818;stroke-width:1;" fill="none"/></g><g class="link" data-entity-1="ent0001" data-entity-2="ent0020" id="lnk40" data-link-type="dependency"><polygon points="379.401,818.92,372.663,811.736,374.794,816.977,369.554,819.108,379.401,818.92" fill="#181818" style="stroke:#181818;stroke-width:1;stroke-linejoin:miter;stroke-miterlimit:10;"/><path d="M286.144,772.416 C290.234,775.106 294.401,777.687 298.5,780 C323.942,794.357 348.159,805.743 374.794,816.977" style="stroke:#181818;stroke-width:1;" fill="none"/></g><g class="link" data-entity-1="ent0021" data-entity-2="ent0020" id="lnk41" data-link-type="dependency"><polygon points="538.108,815.979,547.928,815.225,542.508,813.604,544.129,808.185,538.108,815.979" fill="#181818" style="stroke:#181818;stroke-width:1;stroke-linejoin:miter;stroke-miterlimit:10;"/><path d="M628.661,767.116 C602.372,781.302 572.508,797.416 542.508,813.604" style="stroke:#181818;stroke-width:1;" fill="none"/></g><?plantuml-src RLJDRXCn4BxlKvXUQPetG89A_4Xj5GaEI0sglBjEijHhhtOTQ418-P78eKK5ZZt0aMkIfY9DQVeAtZTYPhn9Dj3BUiVppMVFDpD-aAIy6NCcUKUt3SjYORZYNdOSgOIdF6Q1ZXEjX38lJKSAbee004qfIf2inKFzFb9Drk0oAtj2qU1jQPvgPGvuBDXp8Ty94mNSuu7HATko5_R6pkoLlStxx77jnHRZ6Mjd8lKI7XppfW383plE1_aGGGZTPhMEQMcrnJvwZ1tQdtPXf_RIBl8-_4tit8wOlGDpQ4TvZxOMzfh1xnKWvdRs1iz8Kf5G-3_iRFVWeAvgdLSw3Lg4D2cF546_mYrxTcJ_sB6zoS_gQfUR9rfdXZra-tirGWkL8LQS93erHu5IHtvRXLBi91tdFu6z4k8_h-zzya9kkCypJFuxd8SAJI6Ppx3EwYe_XwjEmExcPnN8RPxtOMkC9ic7qMMA2wB0_AOkYBtUtwihEsDvboIwipFAomb0cetpKn1hPg-9CU3Iuwc96b0r8Fm5P7EKs5vJtK0o1pjEJ1dtZJYdziQ9sX8yt7cRQGLovL-07g-riBSKwwCizySM8jTLh4CXTm8_lf_0ByT3qYl09OCAz-Xtiiv9gx3KP1T8115Nc1DqIjSrJ1SZK9njzamN7HSf8rB5PTNL3Weof40d7yZQr38KgW9X4wA0ZgJgElm61MGDbO3cBMutGga8NBJ96icDxsIGaRyqI147zpVG3Gs3oX5Dez2ZsHXZlQ5t5pG7a19y5x27tGNhDe1TvOSWnIdEp02yU2sSppCwfn5itWfKZ4oaLGOob4JEpr48gC40k6TvlqXf8vOdKLsjRiggRY9ebJ1ou5kpiseApvE0bL86NsQu0HEQIfhM1rPj2as702jCq64GXrMfUGWvtKBIbz3t0_kRNWMN6-I-Udae4D4qDgnIUUJU1-ZxjO4Vijo3i39nuccBB9e1_3WVJJjzoQOkXu2bqqUVNxXypr_XNAVuIvypKGvtYFBSLc5jchwtf85Y5GpmrmYMiO7pebBurAuCL61f_0K0?></g></svg>